<svg width="467" height="390" viewBox="0 0 467 390" fill="none" xmlns="http://www.w3.org/2000/svg">
<path d="M239 339.5C322.671 339.5 390.5 271.671 390.5 188C390.5 104.329 322.671 36.5 239 36.5C155.329 36.5 87.5 104.329 87.5 188C87.5 271.671 155.329 339.5 239 339.5Z" fill="#63C8FF"/>
<path opacity="0.25" d="M238.5 374.5C341.777 374.5 425.5 290.777 425.5 187.5C425.5 84.2228 341.777 0.5 238.5 0.5C135.223 0.5 51.5 84.2228 51.5 187.5C51.5 290.777 135.223 374.5 238.5 374.5Z" fill="#AFE3FF"/>
<path d="M239 301.5C301.684 301.5 352.5 250.684 352.5 188C352.5 125.316 301.684 74.5 239 74.5C176.316 74.5 125.5 125.316 125.5 188C125.5 250.684 176.316 301.5 239 301.5Z" fill="#30B2FF"/>
<g filter="url(#filter0_d_186_367)">
<path d="M239.5 264.5C281.474 264.5 315.5 230.474 315.5 188.5C315.5 146.526 281.474 112.5 239.5 112.5C197.526 112.5 163.5 146.526 163.5 188.5C163.5 230.474 197.526 264.5 239.5 264.5Z" fill="black"/>
</g>
<path d="M239.5 264.5C281.474 264.5 315.5 230.474 315.5 188.5C315.5 146.526 281.474 112.5 239.5 112.5C197.526 112.5 163.5 146.526 163.5 188.5C163.5 230.474 197.526 264.5 239.5 264.5Z" fill="#059BF4"/>
<path opacity="0.1" d="M46.3191 384.309C71.9004 384.309 92.6382 380.314 92.6382 375.385C92.6382 370.457 71.9004 366.461 46.3191 366.461C20.7378 366.461 0 370.457 0 375.385C0 380.314 20.7378 384.309 46.3191 384.309Z" fill="black"/>
<path fill-rule="evenodd" clip-rule="evenodd" d="M53.239 364.386C53.239 364.386 51.793 367.568 52.6609 372.291C60.0842 375.955 68.6644 377.594 73.4847 376.63C78.3056 375.665 79.2694 374.702 79.2694 373.641C79.2694 372.58 79.077 371.52 75.5095 370.845C71.9428 370.171 66.8327 368.339 65.5792 367.568C64.3263 366.796 63.0728 364.771 62.2049 364.771C61.3377 364.771 56.1311 366.217 53.239 364.386Z" fill="black"/>
<path fill-rule="evenodd" clip-rule="evenodd" d="M22.3455 367.257C22.3455 367.257 20.8995 370.439 21.7674 375.162C29.1906 378.826 37.7708 380.465 42.5911 379.501C47.4121 378.537 48.3759 377.573 48.3759 376.512C48.3759 375.451 48.1834 374.391 44.616 373.716C41.0492 373.042 35.9392 371.21 34.6856 370.439C33.4328 369.667 32.1792 367.642 31.3113 367.642C30.4442 367.642 25.2375 369.089 22.3455 367.257Z" fill="black"/>
<path fill-rule="evenodd" clip-rule="evenodd" d="M59.7998 157.825C59.7998 157.825 86.8794 170.051 95.1887 177.791C103.498 185.531 100.879 191.542 100.879 191.542L59.811 179.457L59.7998 157.825Z" fill="#ED1A3A"/>
<path fill-rule="evenodd" clip-rule="evenodd" d="M91.3124 222.131L128.152 216.809C129.706 216.584 130.426 214.756 129.443 213.533L123.642 206.315L123.658 206.312C122.021 204.244 120.904 201.718 120.57 198.892C119.67 191.288 124.9 184.105 132.417 182.647C140.77 181.025 148.685 186.721 149.887 195.043C150.266 197.661 149.924 200.214 149.027 202.514L149.037 202.513L145.278 211.214C144.649 212.669 145.859 214.251 147.428 214.024L184.466 208.673C187.77 208.196 190.062 205.13 189.585 201.825L184.478 166.474C184.161 164.283 186.368 162.594 188.4 163.472L195.314 166.459L195.312 166.448C197.749 167.399 200.469 167.726 203.25 167.233C210.748 165.908 216.104 158.895 215.392 151.314C214.595 142.83 206.885 136.838 198.554 138.041C195.882 138.428 193.49 139.516 191.514 141.08L191.511 141.063L185.784 145.666C184.077 147.039 181.524 146.034 181.211 143.866L176.127 108.672C175.649 105.367 172.583 103.076 169.279 103.553L76.1253 117.011C72.8208 117.489 70.5291 120.555 71.0065 123.859L84.4646 217.013C84.942 220.317 88.0079 222.609 91.3124 222.131Z" fill="#EF1C3B"/>
<path fill-rule="evenodd" clip-rule="evenodd" d="M36.5583 151.84L35.7107 139.802L52.0417 145.051L51.493 153.729L45.345 157.824L36.1775 152.225" fill="#FFD2B8"/>
<path fill-rule="evenodd" clip-rule="evenodd" d="M21.304 162.724C16.2185 166.115 12.8883 166.366 16.9877 188.388C21.0709 210.318 19.7292 240.939 19.7292 240.939H63.1237C63.1237 240.939 62.5449 221.464 64.1155 209.618C66.1011 194.641 69.4432 186.232 69.2479 178.122C68.8979 163.599 66.4483 162.724 60.674 159.225C54.8997 155.725 39.1517 150.826 21.304 162.724Z" fill="white"/>
<path fill-rule="evenodd" clip-rule="evenodd" d="M51.2253 113.73C51.2253 113.73 58.3119 125.279 58.0494 135.253C57.7869 145.226 47.1133 143.914 42.2139 142.164C37.3146 140.415 32.8526 142.602 31.2778 135.253C29.703 127.904 29.878 124.404 34.6899 120.642C39.5018 116.88 51.2253 113.73 51.2253 113.73Z" fill="#FEC0AB"/>
<path fill-rule="evenodd" clip-rule="evenodd" d="M78.4971 198.554C78.7294 196.891 78.3165 190.168 80.2902 190.812C82.2647 191.456 78.7392 196.819 83.4377 196.958C88.1355 197.098 92.2377 194.983 94.4949 196.638C95.3754 197.283 95.878 203.954 92.4743 205.101C89.0706 206.247 79.787 207.393 79.787 207.393L78.4971 198.554Z" fill="#FEC0AB"/>
<path fill-rule="evenodd" clip-rule="evenodd" d="M20.1182 162.334C12.9805 165.404 11.2132 173.76 22.9325 193.592C34.6511 213.426 40.4814 217.596 42.4642 218.579C44.4471 219.563 78.8022 207.22 78.8022 207.22L78.9114 202.642L77.5129 198.737C77.5129 198.737 52.046 205.253 49.0959 203.605C46.1457 201.956 38.2515 178.77 35.1124 172.149C31.9733 165.527 26.3208 159.666 20.1182 162.334Z" fill="#ED1A3A"/>
<path fill-rule="evenodd" clip-rule="evenodd" d="M30.228 158.525L36.8772 151.701L45.801 155.113L42.4765 163.774L30.228 158.525Z" fill="#ED1A3A"/>
<path fill-rule="evenodd" clip-rule="evenodd" d="M45.626 155.2L50.3504 162.724L54.3749 157.475L50.8753 152.925L45.626 155.2Z" fill="#ED1A3A"/>
<path fill-rule="evenodd" clip-rule="evenodd" d="M19.7292 240.939C19.7292 240.939 19.9364 297.282 19.9042 307.081C19.7873 342.601 22.1208 368.323 22.1208 368.323H34.4855C34.4855 368.323 38.9187 333.969 39.3267 308.656C39.4128 303.335 41.6015 273.31 41.9514 270.511C42.3014 267.711 44.5761 280.834 45.101 286.259C45.6259 291.683 49.6504 307.373 49.6504 307.373C49.6504 307.373 48.7755 326.154 49.4755 336.827C50.1754 347.501 52.4445 365.888 52.4445 365.888L64.3486 366.223C64.3486 366.223 67.1482 313.672 66.7982 305.973C66.4483 298.274 63.1237 240.939 63.1237 240.939H19.7292Z" fill="#0475BA"/>
<path fill-rule="evenodd" clip-rule="evenodd" d="M36.6739 120.445C33.6132 122.784 31.8816 124.886 30.5518 128.174C29.266 131.354 30.7064 132.886 32.5619 134.853C33.2912 135.625 34.4167 136.717 34.6021 132.751C34.6889 130.894 31.8816 127.598 33.7364 126.174C34.2865 125.752 36.585 129.412 38.0653 130.818C40.8481 133.462 45.9491 136.819 48.7319 134.174C51.5148 131.53 56.3687 128.208 58.2241 128.411C60.0789 128.615 59.7702 132.039 60.2336 136.412C60.6976 140.785 57.9148 147.904 49.1029 146.785C40.291 145.666 40.9405 146.887 33.6132 140.581C26.2851 134.276 19.3602 119.774 25.8533 109.706C32.3463 99.6379 46.8772 104.58 52.9062 102.749C58.9352 100.919 59.3993 103.97 59.2131 105.597C59.0276 107.224 57.2653 116.275 48.1755 117.089C39.0858 117.902 40.1748 117.769 36.6739 120.445Z" fill="#000002"/>
<path opacity="0.1" d="M413.806 384.188C442.789 384.188 466.285 380.303 466.285 375.51C466.285 370.718 442.789 366.833 413.806 366.833C384.822 366.833 361.326 370.718 361.326 375.51C361.326 380.303 384.822 384.188 413.806 384.188Z" fill="black"/>
<path fill-rule="evenodd" clip-rule="evenodd" d="M402.542 164.448L370.554 168.361L369.022 180.272C369.022 180.272 394.545 183.164 399.479 178.4C404.414 173.636 402.542 164.448 402.542 164.448Z" fill="#ED1A3A"/>
<path fill-rule="evenodd" clip-rule="evenodd" d="M425.342 248.786C425.342 248.786 432.488 276.69 433.85 287.126C435.211 297.562 436.232 303.574 436.232 303.574L445.874 338.739L436.345 343.389C436.345 343.389 424.231 321.089 420.464 312.989C417.32 306.228 408.1 276.01 408.1 276.01L425.342 248.786Z" fill="#0475BA"/>
<path fill-rule="evenodd" clip-rule="evenodd" d="M437.253 342.709L446.895 358.929C446.895 358.929 449.277 359.61 450.298 358.703C451.319 357.796 451.999 356.547 451.999 356.547L444.871 339.228L437.253 342.709Z" fill="#FEC0AB"/>
<path fill-rule="evenodd" clip-rule="evenodd" d="M392.503 163.427C392.503 163.427 395.225 159.003 393.864 148.454C392.503 137.904 390.631 129.567 397.948 120.209C405.264 110.85 426.703 110.68 430.106 127.355C433.509 144.03 425.172 143.179 433.509 155.94C441.847 168.702 452.056 187.248 439.805 194.735C427.554 202.221 424.662 206.645 418.366 193.033C412.07 179.421 388.93 184.355 392.503 163.427Z" fill="#000002"/>
<path fill-rule="evenodd" clip-rule="evenodd" d="M385.073 354.393L387.909 367.778C387.909 367.778 389.497 368.799 390.632 368.459C391.766 368.118 393.467 366.757 393.467 366.757L393.24 354.052L385.073 354.393Z" fill="#FEC0AB"/>
<path fill-rule="evenodd" clip-rule="evenodd" d="M387.115 367.233C387.115 367.233 386.444 369.029 383.835 369.822C381.226 370.617 372.01 372.96 370.761 374.548C369.514 376.136 369.986 376.172 371.347 376.512C372.709 376.852 384.166 377.987 385.98 376.172C387.795 374.357 388.362 373.903 389.724 374.81C391.085 375.718 393.467 375.945 394.148 375.151C394.828 374.357 396.189 369.933 393.467 366.757C389.724 368.232 387.115 367.233 387.115 367.233Z" fill="black"/>
<path fill-rule="evenodd" clip-rule="evenodd" d="M399.479 226.78C399.479 226.78 398.345 238.009 391.993 254.571C385.64 271.132 377.473 294.84 378.267 312.535C379.061 330.231 383.712 354.619 383.712 354.619L395.055 354.847C395.055 354.847 395.85 321.157 394.034 309.246C399.933 296.541 418.876 266.141 424.775 255.819C430.673 245.496 429.993 233.245 426.93 224.964C419.217 225.985 399.479 226.78 399.479 226.78Z" fill="#3A7AFE"/>
<path fill-rule="evenodd" clip-rule="evenodd" d="M402.202 151.686C402.202 151.686 404.017 159.74 403.449 163.03C406.512 163.711 414.793 158.606 414.793 158.606V142.952L402.202 151.686Z" fill="#FDB78E"/>
<path fill-rule="evenodd" clip-rule="evenodd" d="M402.882 163.257C402.882 163.257 401.861 164.051 398.799 171.651C395.736 179.251 392.787 183.221 394.942 192.523C397.097 201.824 399.253 222.696 399.479 226.779C411.39 228.028 426.59 225.192 426.59 225.192C426.59 225.192 420.124 167.454 417.289 164.051C414.452 160.648 414.793 156.791 414.793 156.791L402.882 163.257Z" fill="white"/>
<path fill-rule="evenodd" clip-rule="evenodd" d="M395.264 133.53C395.264 133.53 395.478 147.568 402.441 152.202C409.405 156.837 414.868 146.376 415.404 139.754C418.403 138.695 418.939 132.868 416.689 131.544C414.44 130.219 414.011 131.676 414.118 133.927C414.225 136.178 412.94 135.516 411.547 134.06C410.155 132.603 410.583 132.074 407.583 131.676C404.584 131.279 403.834 131.279 401.799 127.438C399.763 123.598 400.62 123.731 399.656 126.909C398.692 130.087 396.977 132.338 395.264 133.53Z" fill="#FFD2B8"/>
<path fill-rule="evenodd" clip-rule="evenodd" d="M414.452 158.152C414.452 158.152 409.915 163.03 406.171 172.785C402.428 182.54 401.635 186.057 401.861 197.401C402.088 208.744 405.831 238.463 405.831 238.463L430.106 233.926C430.106 233.926 426.703 200.917 425.569 186.397C424.435 171.878 420.237 160.194 414.452 158.152Z" fill="#71DFFF"/>
<path fill-rule="evenodd" clip-rule="evenodd" d="M446.462 358.806C446.462 358.806 446.332 360.718 444.058 362.224C441.784 363.73 434.188 368.512 433.446 370.39C432.704 372.269 433.167 372.168 434.569 372.105C435.971 372.043 446.707 369.955 447.928 367.696C449.149 365.439 449.562 364.842 451.126 365.323C452.69 365.804 455.038 365.341 455.463 364.385C455.889 363.43 455.929 358.802 452.413 356.535C449.247 359.018 446.462 358.806 446.462 358.806Z" fill="black"/>
<path fill-rule="evenodd" clip-rule="evenodd" d="M278.965 94.4328L276.217 130.524C276.102 132.046 277.684 133.116 279.053 132.442L287.132 128.464L287.131 128.48C289.441 127.365 292.074 126.84 294.827 127.121C302.234 127.876 307.945 134.361 307.738 141.803C307.508 150.074 300.426 156.381 292.273 155.76C289.709 155.565 287.358 154.7 285.365 153.361L285.365 153.372L277.902 147.962C276.654 147.057 274.897 147.87 274.78 149.408L272.017 185.693C271.771 188.93 274.195 191.754 277.432 192.001L312.066 194.638C314.212 194.801 315.348 197.253 314.085 198.996L309.785 204.925L309.796 204.926C308.378 207.038 307.492 209.55 307.37 212.293C307.042 219.691 312.563 226.258 319.909 227.188C328.13 228.228 335.449 222.178 336.07 214.017C336.27 211.398 335.743 208.898 334.678 206.692L334.693 206.693L331.537 200.282C330.596 198.372 332.09 196.162 334.214 196.324L368.693 198.949C371.93 199.195 374.754 196.771 375.001 193.533L381.948 102.273C382.195 99.0357 379.77 96.2119 376.533 95.9655L285.273 89.0172C282.036 88.7709 279.211 91.1958 278.965 94.4328Z" fill="white"/>
<path fill-rule="evenodd" clip-rule="evenodd" d="M409.008 215.55C408.894 216.23 409.348 218.499 400.046 214.529C390.745 210.559 382.697 202.618 378.213 200.576C373.73 198.534 374.978 198.875 370.1 200.576C365.222 202.278 366.243 201.937 360.571 200.463C354.9 198.988 353.312 198.308 357.622 197.854C361.932 197.4 368.626 197.287 363.407 196.266C358.189 195.245 355.807 194.111 361.479 194.224C367.151 194.337 369.419 195.018 372.822 194.791C376.225 194.565 383.939 197.4 387.909 199.101C391.879 200.803 402.542 205.681 402.542 205.681L409.008 215.55Z" fill="#FEC0AB"/>
<path fill-rule="evenodd" clip-rule="evenodd" d="M415.133 169.042C407.001 170.204 407.987 184.469 406.172 190.367C404.357 196.266 401.861 204.887 401.861 204.887C401.861 204.887 402.656 208.063 404.924 211.239C407.192 214.416 410.823 216.57 410.823 216.57C410.823 216.57 421.06 201.601 422.081 189.124C423.102 176.646 422.279 168.021 415.133 169.042Z" fill="#ED1A3A"/>
<path opacity="0.1" d="M227.074 389.151C293.942 389.151 348.149 383.027 348.149 375.473C348.149 367.919 293.942 361.795 227.074 361.795C160.207 361.795 106 367.919 106 375.473C106 383.027 160.207 389.151 227.074 389.151Z" fill="black"/>
<path fill-rule="evenodd" clip-rule="evenodd" d="M327.398 273.879H291.203C289.677 273.879 288.729 275.538 289.505 276.852L294.085 284.606H294.069C295.356 286.825 296.08 289.41 296.009 292.176C295.818 299.62 289.786 305.806 282.349 306.165C274.084 306.563 267.258 299.981 267.258 291.805C267.258 289.232 267.942 286.823 269.125 284.734L269.114 284.735L273.943 276.882C274.751 275.57 273.806 273.879 272.264 273.879H235.874C232.627 273.879 229.995 276.511 229.995 279.757V314.491C229.995 316.643 227.636 317.962 225.803 316.834L219.564 312.998V313.009C217.351 311.756 214.779 311.062 212.034 311.149C204.633 311.383 198.504 317.387 198.135 324.783C197.722 333.058 204.309 339.897 212.494 339.897C215.12 339.897 217.574 339.182 219.692 337.953V337.969L225.845 334.334C227.679 333.251 229.995 334.573 229.995 336.703V371.282C229.995 374.529 232.627 377.16 235.874 377.16H327.398C330.645 377.16 333.277 374.529 333.277 371.282V279.757C333.277 276.511 330.645 273.879 327.398 273.879Z" fill="#3A7AFE"/>
<path fill-rule="evenodd" clip-rule="evenodd" d="M230.072 371.282V335.086C230.072 333.56 228.413 332.613 227.099 333.389L219.346 337.968V337.953C217.127 339.24 214.541 339.964 211.775 339.893C204.331 339.701 198.145 333.669 197.787 326.232C197.388 317.968 203.97 311.142 212.147 311.142C214.719 311.142 217.128 311.826 219.218 313.009L219.217 312.998L227.069 317.827C228.382 318.635 230.072 317.689 230.072 316.148V279.757C230.072 276.511 227.441 273.879 224.194 273.879H189.46C187.308 273.879 185.989 271.519 187.117 269.686L190.953 263.448H190.943C192.196 261.235 192.889 258.663 192.802 255.918C192.569 248.516 186.564 242.387 179.168 242.018C170.893 241.605 164.054 248.193 164.054 256.378C164.054 259.004 164.769 261.457 165.999 263.576H165.983L169.617 269.728C170.7 271.563 169.378 273.879 167.248 273.879H132.669C129.423 273.879 126.791 276.511 126.791 279.757V371.282C126.791 374.528 129.423 377.16 132.669 377.16H224.194C227.441 377.16 230.072 374.528 230.072 371.282Z" fill="#6EDEFE"/>
<defs>
<filter id="filter0_d_186_367" x="133.5" y="92.5" width="212" height="212" filterUnits="userSpaceOnUse" color-interpolation-filters="sRGB">
<feFlood flood-opacity="0" result="BackgroundImageFix"/>
<feColorMatrix in="SourceAlpha" type="matrix" values="0 0 0 0 0 0 0 0 0 0 0 0 0 0 0 0 0 0 127 0" result="hardAlpha"/>
<feOffset dy="10"/>
<feGaussianBlur stdDeviation="15"/>
<feColorMatrix type="matrix" values="0 0 0 0 0.00784314 0 0 0 0 0.741176 0 0 0 0 0.952941 0 0 0 0.2 0"/>
<feBlend mode="normal" in2="BackgroundImageFix" result="effect1_dropShadow_186_367"/>
<feBlend mode="normal" in="SourceGraphic" in2="effect1_dropShadow_186_367" result="shape"/>
</filter>
</defs>
</svg>
